# xmcd
#
# Track frame offsets: 
#        150
#        27003
#        54302
#        77514
#        91945
#        102207
#        120526
#        146375
#        169237
#        189757
#
# Disc length: 2782 seconds
#
# Revision: 0
# Processed by: cddbd v1.5.2PL0 Copyright (c) Steve Scherf et al.
# Submitted via: ExactAudioCopy v1.0b3
#
DISCID=6c0adc0a
DTITLE=Love Unlimited Orchestra - Super Movie Themes - Just A Little B
DTITLE=it Different
DYEAR=1979
DGENRE=Disco
TTITLE0=Theme From Superman
TTITLE1=Theme From King Kong
TTITLE2=Night Fever
TTITLE3=Grease
TTITLE4=Intermission
TTITLE5=Theme From Shaft
TTITLE6=Theme From A Summer Place
TTITLE7=The Way We Were
TTITLE8=As Time Goes By
TTITLE9=People Of Tomorrow Are The Children Of Today
EXTD=
EXTT0=
EXTT1=
EXTT2=
EXTT3=
EXTT4=
EXTT5=
EXTT6=
EXTT7=
EXTT8=
EXTT9=
PLAYORDER=
